<svg width="108" height="85" viewBox="0 0 108 85" fill="none" xmlns="http://www.w3.org/2000/svg">
<path d="M82.5001 71.775H79.3679H78.3188H75.1866H74.1375H71.0053H69.9562H66.824H65.7749H62.6427H61.5936H58.4615H57.4123H54.2802H53.2311H50.0989H49.0498H45.9176H44.8685H41.7363H40.6872H37.555H36.5059C35.3887 71.6308 34.2542 71.7058 33.1656 71.9956C31.9303 72.5212 30.7896 73.246 29.7892 74.1411C26.2102 76.6293 22.6257 79.1092 19.1397 81.7293C17.9102 82.4789 16.7317 83.3092 15.612 84.2148C15.2081 84.5074 14.7408 84.7006 14.2482 84.7788C13.7555 84.8569 13.2515 84.8177 12.7768 84.6644L11.8526 83.8414C11.5183 83.2068 11.3593 82.4944 11.3919 81.7779V80.7287V77.5966V76.5474V73.4153V72.3661C11.5306 71.8693 11.3446 71.707 10.8367 71.7333C9.9902 71.7764 9.13954 71.7667 8.29162 71.7792H7.24251H4.11034L3.06258 71.5516C2.19454 71.0422 1.47644 70.3126 0.980957 69.4366V2.96348C1.55805 1.87458 2.53046 1.04819 3.69818 0.654266L4.74594 0.632074H7.87802H8.92722H12.0593H13.1085H16.2406H17.2898H20.4219H21.4711H24.6032H25.6524H28.7845H29.8337H32.9657H34.0149H37.147H38.1962H41.3283H42.3775H45.5096H46.5588H49.6909H50.7401H53.8722H54.9214H58.0535H59.1026H62.2347H63.2839H66.416H67.4652H70.5973H71.6465H74.7786H75.8278H78.9599H80.0091C80.4615 0.632074 80.4962 0.877692 80.3824 1.23434C80.2144 1.7221 80.1813 2.24613 80.2866 2.75113C80.2649 3.1138 80.3366 3.47601 80.4948 3.80308L80.2172 4.04592H79.1681H76.0359H74.9868H71.8546H70.8055H67.6733H66.6242H63.492H62.4429H59.3108H58.2617H55.1295H54.0804H50.9482H49.8991H46.7669H45.7178H42.5856H41.5365H38.4043H37.3552H34.223H33.1739H30.0418H28.9926H25.8605H24.8114H21.6792H20.6301H17.4979H16.4488H13.3166H12.2675H9.13533H8.08622L4.44897 4.06396C4.29106 5.29448 4.26031 6.53801 4.35733 7.77482V8.82393V11.9561V13.0052V16.1374V17.1865C4.35733 18.2301 4.35733 19.2742 4.35733 20.3187V21.3678V24.5V25.5491V28.6812V29.7304C4.35733 30.7739 4.35733 31.818 4.35733 32.8625V33.9116V37.0438V38.0929V41.2251V42.2742C4.35733 43.3178 4.35733 44.3619 4.35733 45.4064V46.4555V49.5876V50.6368V53.7689V54.8181V57.9502V58.9994V62.1315V63.1806V66.3128V67.3619C4.13667 68.1946 4.42952 68.5304 5.30657 68.4166C5.88168 68.3698 6.45884 68.3535 7.03567 68.3681H8.08487H11.217L12.2481 68.4444C12.8492 68.7041 13.4118 69.045 13.9203 69.4575L14.2576 69.8973C14.6772 70.7282 14.8656 71.6567 14.803 72.5854V73.6345C14.803 74.6781 14.803 75.7222 14.803 76.7667C14.803 77.1164 14.803 77.4661 14.803 77.8158V80.6399L18.5498 77.8755L22.0581 75.4192C22.5132 75.1083 22.967 74.7933 23.425 74.488C26.2005 72.634 28.754 70.4525 31.7057 68.8579L33.1504 68.4708L36.2908 68.3708H37.34H40.4721H41.5213H44.6534H45.7025H48.8346H49.8838H53.0159H54.0651H57.1972H58.2464H61.3785H62.4277H65.5598H66.609H69.7411H70.7903H73.9223H74.9715H78.1036H79.1528H82.2849H83.3341H86.4662H87.5154H90.6475H91.6967H94.8288H95.878H99.0101H100.059C101.382 68.3805 102.706 68.3708 104.027 68.4124C104.532 68.4291 104.682 68.2737 104.665 67.7741C104.622 66.453 104.635 65.129 104.624 63.8065V62.7574V59.6252V58.5761V55.4439C104.624 55.0942 104.624 54.7445 104.624 54.3948C104.624 53.3512 104.624 52.3072 104.624 51.2626C104.624 50.9129 104.624 50.5633 104.624 50.2135C104.624 49.17 104.624 48.1259 104.624 47.0814C104.624 46.7317 104.624 46.382 104.624 46.0323C104.624 44.9887 104.624 43.9446 104.624 42.9001V41.851V38.7188C104.624 38.3691 104.624 38.0194 104.624 37.6697C104.624 36.6261 104.624 35.5821 104.624 34.5375C104.624 34.1878 104.624 33.8381 104.624 33.4884C104.624 32.4439 104.624 31.3998 104.624 30.3563V29.3071V26.175C104.624 25.8253 104.624 25.4755 104.624 25.1258C104.624 24.0822 104.624 23.0382 104.624 21.9937C104.624 21.644 104.624 21.2942 104.624 20.9445C104.624 19.9009 104.624 18.8569 104.624 17.8124C104.624 17.4627 104.624 17.113 104.624 16.7633C104.624 15.7197 104.624 14.6756 104.624 13.6311V12.582V9.44983C104.624 9.10012 104.624 8.75039 104.624 8.40068C104.624 7.35709 104.624 6.31306 104.624 5.26855C104.475 4.8661 105.093 4.22216 104.236 4.04453H101.104H100.055H96.9229H95.8738C95.4103 4.04453 95.4034 3.7864 95.5199 3.43946C95.6805 2.95068 95.7125 2.42881 95.6129 1.92407C95.6369 1.56138 95.5642 1.19879 95.402 0.873515L95.6643 0.630676H96.7134H99.8456H100.895H104.027L105.075 0.645923C105.737 0.783633 106.354 1.08832 106.866 1.53105C107.378 1.97379 107.768 2.53994 108 3.17583V69.4366C107.684 70.1176 107.184 70.697 106.556 71.1098C105.929 71.5226 105.199 71.7525 104.449 71.7736H103.4H100.267H99.2183H96.0861H95.037H91.9048H90.8557H87.7235H86.6744H83.5422L82.5001 71.775Z" fill="#EA1D63"/>
<path d="M74.6884 18.0511L76.0068 19.6997L76.6285 20.5782L77.8469 22.5682L77.9926 22.8597L79.1029 25.1508C79.0982 25.2644 79.1188 25.3776 79.1632 25.4822C79.2076 25.5869 79.2747 25.6803 79.3596 25.7559L80.1533 28.0721C80.1839 28.3593 80.1533 28.666 80.3809 28.8978L80.8639 31.3957C80.8306 31.7542 80.8908 32.1152 81.0387 32.4434L81.2247 35.3702C81.1284 35.7109 81.1284 36.0717 81.2247 36.4124L80.8472 39.9664C80.694 40.3647 80.6181 40.7886 80.6238 41.2154L79.2249 45.6479L78.4408 47.452C77.5081 49.1523 76.4496 50.7804 75.274 52.3229C72.8244 55.3047 69.8014 57.7647 66.3841 59.5573L64.5273 60.3982L60.1351 61.7332L58.7556 61.9553L55.3251 62.3133L54.2815 62.3217L51.3562 62.144L50.3654 61.9803L47.8036 61.5195L47.4178 61.4127L44.9642 60.6175L43.8665 60.1457L41.7557 59.141C41.5961 58.9407 41.3655 58.8095 41.1118 58.7746L39.4465 57.7254L38.6014 57.119L36.9472 55.7992C36.7962 55.5442 36.5744 55.3383 36.3088 55.2067L35.0598 53.9577C34.855 53.6045 34.5773 53.2989 34.2452 53.0612L33.1351 51.6624L32.6521 50.9976L31.4642 49.1547L30.9202 48.1972L29.8988 46.0531L29.7073 45.5812L28.9746 43.5204L28.7401 42.6808L28.1364 39.9664C28.189 39.6749 28.1342 39.3742 27.9823 39.1199C27.9093 38.1466 27.8357 37.1752 27.7617 36.2056C27.7617 35.8578 27.7584 35.5099 27.752 35.162L28.067 31.794L28.3112 30.3507L29.4992 26.1625L30.25 24.2932C33.0225 18.5498 37.6835 13.9328 43.453 11.2151L45.0905 10.5115L49.4813 9.25279C49.9082 9.29548 50.3389 9.22563 50.7304 9.05019L54.0734 8.79346L55.1212 8.80036L58.0285 9.07793L57.8245 9.658C57.6074 9.88033 57.4761 10.1724 57.4539 10.4823C57.3152 11.0721 57.4609 11.9298 57.1126 12.2129C56.7643 12.496 55.9441 12.2489 55.3321 12.2323L54.2815 12.2198C53.0862 12.167 51.8897 12.2905 50.7304 12.5862C50.3009 12.5469 49.8689 12.6261 49.4813 12.8151C47.8031 13.1155 46.1823 13.6774 44.6783 14.4804C43.5455 14.9158 42.4772 15.5036 41.5031 16.2276C38.03 18.5165 35.2802 21.7468 33.575 25.5408C32.7372 27.041 32.1569 28.6711 31.8584 30.3632C31.673 30.828 31.5702 31.3216 31.5545 31.8217C31.3036 32.9173 31.2102 34.0429 31.2769 35.1648C31.176 35.5059 31.1799 35.8695 31.288 36.2084C31.205 37.1897 31.2837 38.178 31.5211 39.1338C31.4915 39.2767 31.4911 39.4242 31.52 39.5673C31.5488 39.7104 31.6064 39.8461 31.689 39.9664C31.746 40.8347 31.9605 41.6853 32.3218 42.4768C32.3255 42.8917 32.4611 43.2946 32.709 43.6273C32.8572 44.3427 33.1433 45.0224 33.5514 45.6285C33.6017 45.9567 33.7519 46.2615 33.9816 46.5013C34.2305 47.1675 34.5924 47.7858 35.0515 48.329C35.1553 48.6802 35.3694 48.9887 35.6621 49.2088C35.9273 49.7455 36.2945 50.2253 36.7432 50.6216C36.9391 50.9749 37.2118 51.2799 37.5412 51.5139C37.8698 51.9967 38.2887 52.4114 38.7748 52.7351C38.9896 53.0752 39.2941 53.3494 39.6547 53.5275C40.0687 53.96 40.5454 54.3277 41.0688 54.6183C41.2452 54.8461 41.4922 55.0091 41.7711 55.0818C42.3755 55.602 43.0702 56.007 43.8207 56.2766C44.0464 56.5041 44.3375 56.6555 44.6534 56.7096C45.2827 57.1288 45.9911 57.4149 46.735 57.5506V54.8084V53.7606C46.7489 53.1403 46.7461 52.52 46.7822 51.9011C46.8238 51.1989 47.0944 50.5355 47.8216 50.4065C48.8791 50.2177 48.7084 49.6238 48.4808 48.9369C48.5118 48.5767 48.4551 48.2143 48.3156 47.8807C48.2037 47.0847 47.9475 46.3157 47.5593 45.6118C47.5256 45.3642 47.4046 45.1368 47.218 44.9707C46.8958 44.1485 46.3931 43.4091 45.7469 42.8071C45.6646 42.5838 45.5004 42.4003 45.2876 42.2937L43.8999 40.7755C43.7538 40.4375 43.5275 40.1403 43.2406 39.9095L42.3303 38.2956C42.2885 38.0507 42.1659 37.8269 41.982 37.66L41.1646 35.1412L41.048 34.2891L40.8925 31.3957C40.9166 31.0488 40.9406 30.7013 40.9647 30.3535C41.2693 28.7521 41.7826 27.1975 42.4913 25.7295C43.801 23.4108 45.7095 21.4865 48.0173 20.1577C49.485 19.4664 51.0305 18.9539 52.6205 18.6312L53.8805 18.559L56.5866 18.6589C56.9085 18.8291 57.2735 18.9001 57.6357 18.8629L59.6494 19.5096L60.5514 19.9259L62.3555 20.9917L62.9106 21.4233L64.4885 22.8472C64.6462 23.165 64.8803 23.4387 65.1698 23.6437L66.3369 25.3687L66.8157 26.2111L67.6025 28.2927C67.6733 28.5702 67.6192 28.8797 67.8316 29.117L68.1355 31.8148C68.1355 32.1645 68.1355 32.5142 68.1355 32.864C68.0043 34.1335 67.7747 35.3908 67.4485 36.6247L66.6367 38.5079C65.7227 39.9793 64.649 41.3453 63.4351 42.5809C62.1863 43.892 61.2951 45.5019 60.847 47.2562C60.637 47.7243 60.5418 48.2358 60.5694 48.7481C60.2919 49.5155 60.0948 50.2316 61.2494 50.4411C61.459 50.48 61.6339 50.6993 61.8254 50.8353L62.1293 51.4972L62.2154 54.3921C62.1198 54.7333 62.1227 55.0946 62.2237 55.4343C62.2015 55.9533 62.1875 56.4737 62.157 56.9927C62.1306 57.4465 62.2445 57.6672 62.7469 57.441C63.5933 57.1421 64.4051 56.7531 65.1685 56.2808C69.5383 54.1473 73.0656 50.6088 75.1852 46.2321C76.0908 44.68 76.7271 42.9856 77.067 41.2209C77.2701 40.8376 77.3605 40.4046 77.3279 39.972C77.6689 38.8179 77.8097 37.614 77.7443 36.4124C77.8899 36.0035 77.8923 35.5573 77.7511 35.1468C77.8391 34.2391 77.7721 33.3231 77.5528 32.4379L77.4139 31.3652C77.3041 30.5224 77.106 29.6935 76.8228 28.8922C76.7985 28.5826 76.6901 28.2856 76.5091 28.0332C76.3092 27.1376 75.9622 26.2813 75.4822 25.4992L75.2962 25.0953C74.9807 24.2913 74.5471 23.5387 74.0098 22.8624L73.8405 22.5849C73.4756 21.9051 73.0127 21.2827 72.4666 20.7378C72.2732 20.3805 72.002 20.0712 71.6729 19.833L70.5793 18.6423C71.3795 17.9602 72.0277 17.1177 72.4818 16.1693C72.5776 15.8917 72.7595 16.161 72.8982 16.1485L74.1319 17.3975C74.2505 17.6644 74.4438 17.8914 74.6884 18.0511ZM44.484 34.3252C44.4886 34.7022 44.5838 35.0725 44.7616 35.4049C44.9419 36.1495 45.2725 36.8494 45.7331 37.4615C45.8372 37.8048 46.044 38.108 46.3256 38.3303C46.6445 38.891 47.0776 39.3784 47.5968 39.761C47.8016 40.1092 48.0817 40.4071 48.4169 40.6326L49.4896 42.0605C49.6012 42.4107 49.7994 42.7272 50.0656 42.9806L51.0745 45.1858L51.2271 45.6479L51.8169 48.1194L51.9779 48.9521L52.0182 49.9985C51.9904 50.1372 52.0445 50.2024 52.1916 50.1636H54.4911C55.1406 50.1788 55.7915 50.1858 56.4409 50.2122C56.7837 50.226 57.0182 50.1941 57.0348 49.7445C57.064 48.9937 57.1639 48.2471 57.2347 47.4977C57.7126 45.6499 58.4519 43.8798 59.4301 42.2409C60.1766 41.2036 60.9995 40.2234 61.892 39.3086C62.5769 38.6757 63.1191 37.9042 63.4823 37.0452C64.2984 35.7282 64.7234 34.2064 64.7077 32.6572C64.7077 32.3074 64.7045 31.9577 64.698 31.608C64.7005 30.736 64.5361 29.8717 64.2137 29.0615C64.1422 28.6599 63.9793 28.28 63.7377 27.9513C63.53 27.2805 63.1656 26.6687 62.6747 26.1667L62.3541 25.7295C61.9042 25.0483 61.3047 24.4787 60.6014 24.0642C60.378 23.7746 60.0692 23.5625 59.7188 23.4578C59.1892 23.0328 58.5684 22.7364 57.905 22.5918C57.5733 22.3762 57.19 22.253 56.7948 22.2351C55.8511 21.9334 54.8503 21.8541 53.8708 22.0034C51.3611 22.1179 48.985 23.1675 47.2103 24.9458C45.4356 26.7241 44.3908 29.1022 44.2814 31.6122C44.1532 32.5206 44.2223 33.4459 44.484 34.3252ZM50.1516 55.0235V58.1543C50.0281 58.8357 50.6346 58.6552 50.9038 58.6969C52.2949 58.9611 53.714 59.046 55.1267 58.9494C56.163 58.9595 57.1981 58.8735 58.2186 58.6927C58.6766 58.6441 58.9528 58.4943 58.9125 57.9253C58.8417 57.0316 58.8681 56.1295 58.8528 55.2316C58.8511 55.0234 58.8627 54.8153 58.8875 54.6085C59.0429 53.7481 58.7223 53.4553 57.8383 53.5344C56.8017 53.6274 55.7567 53.5775 54.7104 53.59H51.5782C49.8643 53.5469 50.085 53.2499 50.1516 55.0221V55.0235Z" fill="#EA1D63"/>
<path d="M69.7009 14.4638C69.6457 14.8818 69.4588 15.2713 69.1674 15.576C68.876 15.8806 68.4951 16.0846 68.0799 16.1582L67.2473 15.9736C66.6093 15.5027 65.9158 15.1122 65.1824 14.8107C65.0122 14.6259 64.7811 14.5086 64.5314 14.4804C63.8935 14.0741 63.1888 13.7837 62.4498 13.6228C62.2033 13.436 61.9135 13.3147 61.6075 13.2703C61.3291 13.1131 61.0901 12.8948 60.9083 12.6318C60.7266 12.3689 60.6069 12.068 60.5583 11.7521C60.5846 11.31 60.769 10.8922 61.0777 10.5747C61.3865 10.2573 61.7991 10.0615 62.2403 10.0229C63.0849 10.2226 63.9134 10.4851 64.7188 10.8084L65.3738 11.086L67.214 11.9727L68.0466 12.4848C68.598 12.7872 69.0959 13.1782 69.5204 13.6422L69.7009 14.4638Z" fill="#D3D3D3"/>
<path d="M88.3576 0.638965L91.272 0.722226L91.8978 1.12884C92.8318 2.83715 92.1616 4.00147 90.2326 4.01673C89.6775 4.01673 89.1223 4.04032 88.5672 4.05281H87.5181L84.6038 3.9862L83.9725 3.58238C82.9927 1.8921 83.6948 0.68753 85.6529 0.668102C86.208 0.668102 86.7549 0.644509 87.3058 0.632019L88.3576 0.638965Z" fill="#EA1D63"/>
<path d="M25.297 28.4315C25.1888 28.5841 25.2444 28.8298 25.0196 28.9144L21.8874 28.9283H20.8383H17.7061L16.6833 28.8312C16.4122 28.6875 16.1744 28.4883 15.9855 28.2466C15.7966 28.0048 15.6608 27.7259 15.587 27.4281L15.8881 26.1986L16.267 25.8197L17.4965 25.5131H20.6287H21.6778H24.81H25.8591C26.331 25.8961 25.8327 26.2361 25.78 26.5802C25.6546 27.206 25.4934 27.8242 25.297 28.4315Z" fill="#EA1D63"/>
<path d="M83.1343 26.5886C83.1546 26.475 83.1465 26.3582 83.1104 26.2487C83.0743 26.1392 83.0115 26.0404 82.9276 25.9613C82.8624 25.6282 83.0371 25.5117 83.3438 25.5075H84.3931H87.5252H88.5743H91.7064L92.5461 25.7226C92.8192 25.9128 93.0407 26.1678 93.1909 26.4647C93.341 26.7617 93.4152 27.0913 93.4065 27.424C93.3281 27.7897 93.1456 28.1251 92.8812 28.3897C92.6168 28.6543 92.2816 28.837 91.9159 28.9158L88.7838 28.9255H87.7347H84.6026L83.7866 28.8394C83.6789 28.0616 83.4591 27.3035 83.1343 26.5886Z" fill="#EA1D63"/>
<path d="M83.5505 43.1042C83.8003 42.7877 83.6894 42.123 84.3833 42.2354H87.5154H88.5645H91.6966L92.5363 42.4505C92.8094 42.6407 93.0309 42.8957 93.181 43.1927C93.3312 43.4896 93.4054 43.8192 93.3967 44.1518C93.3182 44.5176 93.1358 44.853 92.8714 45.1176C92.607 45.3822 92.2718 45.5649 91.9061 45.6437L88.774 45.6534H87.7263H84.5942H83.5451C83.2078 45.6035 82.7596 45.7297 83.0247 45.0608C83.3199 44.4469 83.4981 43.7834 83.5505 43.1042Z" fill="#EA1D63"/>
<path d="M26.0173 45.097L26.052 45.5993L25.0181 45.6451H21.886H20.8368H17.7047L16.6805 45.5479C16.4098 45.4043 16.1724 45.2053 15.9838 44.9638C15.7951 44.7223 15.6594 44.4438 15.5856 44.1464L15.8868 42.9168L16.2656 42.538L17.4952 42.2313H20.6273H21.6765H24.8085L25.1777 42.2895C25.3448 43.2554 25.6267 44.1979 26.0173 45.097Z" fill="#EA1D63"/>
<path d="M24.3798 33.9116L24.4478 34.7443C24.4086 35.3592 24.4007 35.9757 24.4242 36.5914C24.4714 37.1618 24.2522 37.2852 23.7304 37.2616C23.1156 37.2297 22.498 37.2755 21.8818 37.288H20.8327H17.7005H16.6514H13.5193H12.4715L9.33798 37.2672L8.7399 36.973C8.45925 36.7268 8.2559 36.4046 8.15444 36.0452C8.05298 35.6859 8.05768 35.3049 8.16808 34.9483C8.40213 34.5549 8.73085 34.2261 9.12427 33.9921L12.262 33.8727H13.3111H16.4432H17.4924H20.6245H21.6736L24.3798 33.9116Z" fill="#EA1D63"/>
<path d="M84.5942 37.2464L84.5248 36.8301C84.5414 36.0752 84.6053 35.3174 84.5595 34.5666C84.5248 33.9949 84.733 33.8728 85.2534 33.8936C86.0069 33.9241 86.7633 33.8797 87.5197 33.8672H88.5688H91.7009H92.75H95.8822H96.9313L99.8456 33.956L100.471 34.364C101.391 36.0723 100.723 37.2311 98.8061 37.2464C98.251 37.2464 97.696 37.27 97.1409 37.2825H96.0916H92.9595H91.9104H88.7783H87.7292L84.5942 37.2464Z" fill="#EA1D63"/>
<path d="M47.6176 32.3726L47.1721 32.0396C46.4935 31.2402 46.778 30.3743 47.0014 29.5152C47.4446 28.4635 48.0926 27.5105 48.9076 26.7117C49.7227 25.9128 50.6886 25.2841 51.749 24.8621C52.1371 24.7807 52.5409 24.82 52.9061 24.9748C53.2712 25.1296 53.5803 25.3925 53.7917 25.7281L53.9193 26.175C53.957 26.6077 53.8457 27.0404 53.6036 27.4011C53.3615 27.7618 53.0033 28.0289 52.5885 28.158C51.9976 28.412 51.4692 28.792 51.0404 29.2714C50.6116 29.7508 50.2926 30.318 50.1058 30.9335C49.609 32.3754 49.183 32.6211 47.6176 32.3726Z" fill="#EA1D63"/>
</svg>
