<svg width="115" height="115" viewBox="0 0 115 115" fill="none" xmlns="http://www.w3.org/2000/svg">
<path d="M37.1707 52.8341C36.8409 53.1839 36.3672 53.4482 36.3034 53.7889C35.5936 57.3022 35.6814 60.9299 36.5603 64.4047C37.9673 69.5177 41.1278 73.9729 45.4887 76.9903C47.6636 78.6716 50.1603 79.8891 52.8242 80.5676C55.4881 81.2461 58.2627 81.3713 60.9769 80.9353C62.7929 80.5937 64.5906 80.1613 66.3633 79.6398C66.9972 79.4496 67.6708 79.4347 68.3125 79.5967C68.9541 79.7587 69.54 80.0916 70.0076 80.56C70.2026 80.7422 70.3993 80.9244 70.5906 81.1066C76.3741 86.7492 82.1578 92.3911 87.9413 98.0325C90.4048 100.43 92.861 102.841 95.3755 105.181C96.0983 105.925 96.9866 106.488 97.9682 106.825C98.9497 107.161 99.9968 107.261 101.024 107.116C102.485 106.88 103.858 106.262 105.003 105.324C106.148 104.386 107.024 103.162 107.542 101.775C108.158 100.332 108.18 98.7046 107.604 97.2453C107.07 95.8486 106.218 94.5957 105.115 93.5865C100.674 89.2777 96.2319 84.9689 91.7895 80.6602C88.2752 77.2588 84.7523 73.866 81.221 70.4816C81.0971 70.3632 80.9805 70.2338 80.8566 70.1172C80.2296 69.6236 79.7872 68.933 79.601 68.157C79.4149 67.381 79.4959 66.5649 79.8308 65.8406C81.1486 62.1762 81.5049 58.2352 80.8657 54.3939C79.1384 43.5557 68.1726 34.6582 57.2835 36.0211C55.8804 36.2034 54.4974 36.5168 52.9924 36.7919C53.2074 37.058 53.2911 37.1819 53.395 37.2894C54.8174 38.7556 56.2414 40.2206 57.6663 41.6844C59.2935 43.3498 61.0135 44.9333 62.5295 46.6935C64.032 48.4293 64.9085 50.6192 65.0185 52.9124C65.0859 54.3676 64.8527 55.8211 64.3332 57.182C63.8137 58.543 63.0191 59.7822 61.9992 60.8224C61.0129 62.021 59.7903 63.0035 58.4074 63.7085C57.0245 64.4136 55.5111 64.8261 53.9617 64.9204C51.1595 65.0411 48.4207 64.0646 46.327 62.1981C44.9896 61.0684 43.7759 59.7765 42.5624 58.5174C40.8004 56.688 39.0548 54.8184 37.1707 52.8341Z" stroke="#EA1D63" stroke-width="2" stroke-miterlimit="10"/>
<path d="M1.65515 51.83C1.8968 50.9444 2.4021 50.1533 3.10384 49.5615C3.82469 49.0141 4.7098 48.7276 5.61463 48.7488C9.32088 48.7488 13.0259 48.7488 16.7297 48.7488C17.8733 48.7759 18.9974 48.4479 19.9469 47.81C20.8965 47.172 21.625 46.2555 22.0322 45.1865C22.5643 43.9 23.1054 42.6172 23.6557 41.3381C24.102 40.3274 24.2317 39.2052 24.0274 38.1194C23.8231 37.0336 23.2946 36.0352 22.5115 35.2557C19.867 32.6051 17.2205 29.9563 14.5723 27.3094C14.1601 26.9551 13.8296 26.5157 13.6034 26.0214C13.3773 25.5271 13.2608 24.9897 13.2622 24.4461C13.2636 23.9026 13.3828 23.3658 13.6114 22.8727C13.8401 22.3796 14.173 21.9418 14.587 21.5896C16.9206 19.2488 19.257 16.9122 21.5967 14.5799C21.953 14.1563 22.3981 13.8161 22.9003 13.5833C23.4026 13.3506 23.9497 13.2309 24.5032 13.2328C25.0567 13.2347 25.6032 13.3582 26.1038 13.5944C26.6044 13.8306 27.0469 14.1738 27.4003 14.5999C30.0242 17.2165 32.6463 19.8355 35.2666 22.457C36.0588 23.2827 37.0877 23.8423 38.2113 24.0587C39.335 24.275 40.498 24.1375 41.5402 23.6651C42.789 23.1415 44.0426 22.6301 45.3011 22.1309C46.3307 21.7306 47.2147 21.0278 47.837 20.1151C48.4592 19.2024 48.7904 18.1225 48.7868 17.0179C48.7868 13.2734 48.7868 9.53071 48.7868 5.7862C48.7352 5.22591 48.808 4.6611 48.9996 4.1321C49.1913 3.60309 49.4971 3.12286 49.8956 2.72561C50.2941 2.32837 50.7753 2.02392 51.3049 1.83389C51.8345 1.64386 52.3994 1.57292 52.9596 1.6262C56.2394 1.6262 59.5246 1.6262 62.8154 1.6262C63.3572 1.5896 63.9005 1.66969 64.4087 1.86103C64.9169 2.05236 65.3782 2.35047 65.7613 2.73529C66.1444 3.12011 66.4404 3.58265 66.6295 4.09167C66.8185 4.60069 66.896 5.14435 66.857 5.68594C66.857 9.42984 66.857 13.1738 66.857 16.9177C66.8315 18.0609 67.1653 19.1834 67.8112 20.1271C68.4571 21.0708 69.3827 21.7881 70.4577 22.1782C71.732 22.6884 73.0014 23.212 74.2659 23.7489C75.2578 24.1648 76.3501 24.2804 77.4071 24.0812C78.4641 23.882 79.4393 23.3768 80.2117 22.6283C82.8939 19.9558 85.5662 17.2833 88.229 14.6108C88.5835 14.1861 89.0271 13.8444 89.5282 13.61C90.0293 13.3755 90.5758 13.254 91.129 13.254C91.6823 13.254 92.2288 13.3755 92.7299 13.61C93.231 13.8444 93.6743 14.1861 94.0289 14.6108C96.3539 16.9323 98.6773 19.2555 100.999 21.5806C101.423 21.9356 101.765 22.3795 101.999 22.8808C102.233 23.3822 102.355 23.9289 102.355 24.4823C102.355 25.0358 102.233 25.5824 101.999 26.0838C101.765 26.5852 101.423 27.0291 100.999 27.3841L93.2199 35.1647C92.3791 35.9549 91.8099 36.991 91.5939 38.1244C91.3779 39.2579 91.526 40.4307 92.0172 41.4748C92.5699 42.7527 93.1113 44.0355 93.6409 45.3232C94.0542 46.3383 94.7597 47.2076 95.6682 47.8208C96.5766 48.434 97.6468 48.7634 98.7428 48.767C102.449 48.7816 106.155 48.767 109.858 48.767C110.414 48.7169 110.973 48.7898 111.498 48.9805C112.022 49.1712 112.498 49.475 112.892 49.8703C113.286 50.2656 113.588 50.7428 113.776 51.2679C113.965 51.793 114.036 52.3532 113.983 52.9088C113.983 56.1886 113.983 59.474 113.983 62.7647C114.021 63.3062 113.943 63.8496 113.753 64.3581C113.563 64.8667 113.266 65.3286 112.883 65.7127C112.499 66.0968 112.038 66.3941 111.529 66.5847C111.021 66.7752 110.478 66.8545 109.936 66.8172C106.326 66.8172 102.716 66.8172 99.1054 66.8172C97.942 66.7708 96.7947 67.0987 95.8314 67.7526C94.8682 68.4066 94.1398 69.3522 93.7537 70.4505C93.3765 71.3999 92.9795 72.3419 92.5695 73.3423C92.3873 73.1765 92.2579 73.0708 92.1413 72.9524C90.5196 71.3325 88.9087 69.7017 87.2688 68.1C87.1254 67.982 87.0251 67.8201 86.9829 67.6393C86.9408 67.4585 86.9593 67.2689 87.0356 67.0996C88.7988 61.417 88.8665 55.3435 87.2305 49.6229C85.5945 43.9023 82.3259 38.783 77.8248 34.8917C73.3238 31.0005 67.7856 28.5062 61.8886 27.7144C55.9916 26.9226 49.9916 27.8676 44.6235 30.4337C39.2554 32.9998 34.7522 37.0757 31.6652 42.1621C28.5782 47.2485 27.0414 53.1247 27.2431 59.0712C27.4447 65.0177 29.376 70.7763 32.8005 75.6419C36.225 80.5075 40.9942 84.2689 46.5238 86.4654C53.1016 89.1347 60.413 89.3845 67.1577 87.1706C67.3091 87.1033 67.4784 87.0881 67.6393 87.1274C67.8002 87.1666 67.9436 87.2581 68.047 87.3874C69.6651 89.0383 71.3049 90.6673 72.9376 92.3072C73.056 92.4275 73.1654 92.5569 73.3148 92.719C72.2744 93.1509 71.2758 93.5755 70.27 93.98C69.2735 94.3834 68.4179 95.0716 67.8106 95.9587C67.2032 96.8457 66.8709 97.8923 66.8552 98.9672C66.8425 102.444 66.8552 105.921 66.8552 109.397C67.0271 110.422 66.7896 111.474 66.1939 112.326C65.5983 113.178 64.6921 113.762 63.6702 113.953H51.9793C50.9548 113.766 50.045 113.183 49.4472 112.33C48.8493 111.478 48.6114 110.424 48.785 109.397C48.785 105.922 48.785 102.446 48.785 98.9708C48.7693 97.8964 48.4386 96.8503 47.8339 95.9621C47.2291 95.074 46.377 94.3828 45.3831 93.9745C43.9704 93.4011 42.563 92.8138 41.1612 92.2125C40.1378 91.7463 38.9949 91.6093 37.8904 91.8205C36.7858 92.0317 35.7742 92.5806 34.995 93.3914C32.4816 95.9011 29.9695 98.412 27.4586 100.924C27.1022 101.367 26.6511 101.724 26.1385 101.969C25.6259 102.215 25.065 102.342 24.4967 102.342C23.9285 102.342 23.3673 102.215 22.8547 101.969C22.3422 101.724 21.8913 101.367 21.5348 100.924C19.2377 98.6307 16.9418 96.3354 14.6471 94.0383C14.2164 93.683 13.8697 93.237 13.6317 92.732C13.3936 92.227 13.27 91.6756 13.27 91.1174C13.27 90.5591 13.3936 90.0077 13.6317 89.5027C13.8697 88.9978 14.2164 88.5517 14.6471 88.1965C17.1981 85.6455 19.749 83.0944 22.3 80.5434C23.1018 79.7558 23.6449 78.7428 23.8568 77.639C24.0687 76.5352 23.9394 75.3931 23.4862 74.3645C22.9396 73.089 22.3749 71.8135 21.923 70.4943C21.5023 69.394 20.7536 68.4494 19.7785 67.7885C18.8034 67.1276 17.6489 66.7822 16.471 66.799C12.8449 66.8828 9.21521 66.8227 5.58549 66.819C4.88372 66.8508 4.1874 66.6832 3.57695 66.3355C2.9665 65.9879 2.467 65.4745 2.13627 64.8548C1.9473 64.4618 1.78703 64.0556 1.65693 63.6394L1.65515 51.83Z" stroke="#EA1D63" stroke-width="2" stroke-miterlimit="10"/>
<path d="M37.1707 52.834C39.0566 54.8183 40.8021 56.6879 42.5842 58.5228C43.8068 59.7819 45.0113 61.0738 46.3488 62.2035C48.4425 64.07 51.1813 65.0466 53.9835 64.9258C55.5329 64.8316 57.0463 64.4191 58.4292 63.714C59.8121 63.0089 61.0347 62.0264 62.021 60.8278C63.0409 59.7877 63.8355 58.5484 64.355 57.1874C64.8745 55.8265 65.1079 54.3731 65.0405 52.9179C64.9305 50.6247 64.0538 48.4347 62.5513 46.6988C61.0353 44.9387 59.3153 43.3552 57.6881 41.6898C56.2607 40.2321 54.837 38.7671 53.417 37.2948C53.3131 37.1891 53.2346 37.0633 53.0141 36.7973C54.5192 36.524 55.904 36.2033 57.3053 36.0265C68.1944 34.6636 79.1583 43.5593 80.8875 54.3993C81.5267 58.2406 81.1704 62.1817 79.8526 65.846C79.5177 66.5704 79.4369 67.3864 79.623 68.1624C79.8092 68.9384 80.2514 69.629 80.8784 70.1226C81.0078 70.2356 81.1227 70.3631 81.243 70.487C84.7658 73.8799 88.2885 77.2727 91.8113 80.6656C96.2586 84.9683 100.7 89.277 105.137 93.5919C106.24 94.601 107.092 95.8539 107.626 97.2507C108.202 98.71 108.18 100.338 107.564 101.781C107.046 103.167 106.17 104.391 105.025 105.329C103.88 106.268 102.507 106.886 101.046 107.121C100.019 107.266 98.9715 107.166 97.99 106.83C97.0084 106.494 96.1201 105.931 95.3973 105.186C92.8791 102.847 90.4266 100.436 87.963 98.0379C82.1747 92.4014 76.3912 86.7594 70.6126 81.112C70.4304 80.9298 70.2244 80.7476 70.0294 80.5653C69.5618 80.097 68.9759 79.7641 68.3342 79.6021C67.6926 79.4401 67.019 79.455 66.3851 79.6452C64.6124 80.1667 62.8149 80.5991 60.9989 80.9407C58.2848 81.3767 55.5099 81.2515 52.846 80.573C50.1821 79.8945 47.6856 78.6771 45.5107 76.9958C41.1498 73.9784 37.9891 69.5231 36.5821 64.4101C35.7032 60.9353 35.6154 57.3076 36.3252 53.7943C36.3726 53.4463 36.839 53.1821 37.1707 52.834ZM99.6449 102.513C100.35 102.508 101.038 102.293 101.621 101.896C102.205 101.5 102.657 100.939 102.921 100.285C103.186 99.6312 103.25 98.9134 103.107 98.2229C102.963 97.5323 102.617 96.8999 102.114 96.4057C101.611 95.9116 100.972 95.5779 100.279 95.4469C99.5859 95.316 98.8696 95.3936 98.2206 95.67C97.5717 95.9464 97.0194 96.4092 96.6336 96.9997C96.2478 97.5902 96.0457 98.2819 96.0533 98.9872C96.0569 99.455 96.1526 99.9175 96.3351 100.348C96.5176 100.779 96.7834 101.17 97.1169 101.498C97.4505 101.826 97.8454 102.085 98.2791 102.26C98.7129 102.435 99.1771 102.523 99.6449 102.519V102.513Z" fill="#EA1D63" stroke="#EA1D63" stroke-width="2" stroke-miterlimit="10"/>
</svg>
