<svg width="137" height="91" viewBox="0 0 137 91" fill="none" xmlns="http://www.w3.org/2000/svg">
<path d="M86.8087 84.8793H50.4299C48.7397 84.8793 47.3695 86.2495 47.3695 87.9397C47.3695 89.6299 48.7397 91 50.4299 91H86.8087C88.4989 91 89.8691 89.6299 89.8691 87.9397C89.8691 86.2495 88.4989 84.8793 86.8087 84.8793Z" fill="#EA1D64"/>
<path d="M65.4214 84.8758H71.5421L68.7092 63.9521H67.521L65.4214 84.8758Z" fill="#EA1D64"/>
<path d="M134.403 2.19302H2.83557V75.2857H134.403V2.19302Z" fill="white"/>
<path d="M131.343 77.4787H5.89597C4.50269 77.4787 3.16647 76.9252 2.18127 75.94C1.19607 74.9548 0.642578 73.6186 0.642578 72.2253V5.2534C0.642578 3.86011 1.19607 2.52388 2.18127 1.53868C3.16647 0.553474 4.50269 0 5.89597 0H131.343C132.736 0 134.072 0.553474 135.057 1.53868C136.043 2.52388 136.596 3.86011 136.596 5.2534V72.2253C136.596 73.6184 136.042 74.9544 135.057 75.9395C134.072 76.9246 132.736 77.4782 131.343 77.4787ZM11.9726 73.0926H125.266C127.108 73.0926 128.874 72.361 130.176 71.0588C131.478 69.7565 132.21 67.9903 132.21 66.1486V11.323C132.21 9.48133 131.478 7.71509 130.176 6.41284C128.874 5.11059 127.108 4.379 125.266 4.379H11.9709C10.1292 4.379 8.36297 5.11059 7.06072 6.41284C5.75847 7.71509 5.02687 9.48133 5.02687 11.323V66.1486C5.02663 67.0607 5.20608 67.9638 5.55494 68.8065C5.90381 69.6492 6.41525 70.4149 7.06009 71.0599C7.70492 71.7049 8.4705 72.2166 9.3131 72.5656C10.1557 72.9147 11.0588 73.0944 11.9709 73.0944L11.9726 73.0926Z" fill="#EA1D64"/>
</svg>
