<svg width="38" height="38" viewBox="0 0 38 38" fill="none" xmlns="http://www.w3.org/2000/svg">
<path d="M0.839355 36.629V0.5H37.2377V36.629H0.839355Z" stroke="black"/>
<path d="M15.9428 14.7967H16.4428V14.2967V10.9568C16.4428 8.86066 17.0932 7.18245 18.2014 6.03138C19.3078 4.8823 20.9139 4.21298 22.9165 4.21289C22.9166 4.21289 22.9167 4.21289 22.9169 4.21289L26.6867 4.21901C26.6867 4.21901 26.6868 4.21901 26.6868 4.21901C26.6868 4.21901 26.6868 4.21901 26.6868 4.21901C26.7325 4.21917 26.7797 4.25848 26.7797 4.3192V8.81265C26.7797 8.87393 26.7322 8.91284 26.687 8.91284H26.6869L24.1469 8.91375C24.1468 8.91375 24.1468 8.91375 24.1467 8.91375C23.2305 8.91378 22.5232 9.08966 22.0776 9.60062C21.6466 10.0948 21.5753 10.7803 21.5753 11.4654V14.2967V14.7967H22.0753H26.5098C26.5326 14.7967 26.5557 14.806 26.5732 14.8237C26.5919 14.8427 26.603 14.869 26.603 14.8971C26.603 14.8971 26.603 14.8972 26.603 14.8972L26.6012 19.7362V19.7364C26.6012 19.7976 26.554 19.8366 26.5083 19.8366H22.0753H21.5753V20.3366V32.5473C21.5753 32.6084 21.528 32.6475 21.4824 32.6475H16.5358C16.49 32.6475 16.4428 32.6086 16.4428 32.5473V20.3366V19.8366H15.9428H12.1515C12.1059 19.8366 12.0586 19.7975 12.0586 19.7364V14.8972C12.0586 14.8356 12.1061 14.7967 12.1515 14.7967H15.9428Z" fill="white" stroke="black"/>
</svg>
