<svg width="38" height="38" viewBox="0 0 38 38" fill="none" xmlns="http://www.w3.org/2000/svg">
<path d="M0.628906 36.629V0.5H36.7579V36.629H0.628906Z" stroke="black"/>
<path d="M28.2542 12.2848L28.2551 12.2839C28.7074 11.8316 28.9641 11.208 28.9641 10.571C28.9641 9.93308 28.708 9.30929 28.2551 8.85809C27.8039 8.40516 27.1801 8.14903 26.5422 8.14903C25.9057 8.14903 25.2822 8.40537 24.8311 8.85801C24.3787 9.30849 24.1202 9.93202 24.1202 10.571C24.1202 11.2094 24.3795 11.8324 24.831 12.2839C25.281 12.7339 25.9043 12.993 26.5422 12.993C27.1822 12.993 27.8032 12.7336 28.2542 12.2848ZM25.2291 4.21289C29.4481 4.21289 32.8811 7.64602 32.8811 11.8647V25.1004C32.8811 29.319 29.4481 32.7522 25.2291 32.7522H11.9934C7.77476 32.7522 4.3418 29.3192 4.3418 25.1004V11.8647C4.3418 7.646 7.77476 4.21289 11.9934 4.21289H25.2291ZM18.6114 10.3714C14.1382 10.3714 10.4999 14.0097 10.4999 18.4829C10.4999 22.9559 14.1383 26.5941 18.6114 26.5941C23.0846 26.5941 26.723 22.9559 26.723 18.4829C26.723 14.0097 23.0846 10.3714 18.6114 10.3714ZM18.6114 13.992C21.0872 13.992 23.1021 16.0069 23.1021 18.4827C23.1021 20.9583 21.0871 22.973 18.6114 22.973C16.1358 22.973 14.1208 20.9583 14.1208 18.4827C14.1208 16.0069 16.1357 13.992 18.6114 13.992Z" fill="white" stroke="black"/>
</svg>
