<svg width="38" height="38" viewBox="0 0 38 38" fill="none" xmlns="http://www.w3.org/2000/svg">
<path d="M0.757812 36.5211V0.5H36.8392V36.5211H0.757812Z" stroke="black"/>
<path d="M3.21143 14.1455H8.99065V33.6056H3.21143V14.1455Z" fill="white" stroke="black"/>
<path d="M19.8632 16.4567V17.9049L20.7567 16.7652C21.6728 15.5967 22.536 14.7815 23.5032 14.2537C24.4645 13.7291 25.5646 13.4688 26.9856 13.4688C28.4317 13.4688 30.4321 13.8195 32.0605 15.0994C33.666 16.3615 34.9852 18.5863 34.9852 22.4963V33.6057H29.1537V22.9644C29.1537 20.4681 27.3791 17.8831 24.3257 17.8831C22.8087 17.8831 21.6827 18.5332 20.9512 19.5244C20.233 20.4975 19.9149 21.7687 19.9149 23.0166V33.6057H14.084V14.1457H19.8632V16.4567Z" fill="white" stroke="black"/>
<path d="M2.61182 7.29449C2.61182 5.6406 4.10999 4.20215 6.12718 4.20215C8.14437 4.20215 9.64254 5.6406 9.64254 7.29449C9.64254 8.94837 8.14437 10.3868 6.12718 10.3868C4.10999 10.3868 2.61182 8.94837 2.61182 7.29449Z" fill="white" stroke="black"/>
</svg>
