<svg width="38" height="38" viewBox="0 0 38 38" fill="none" xmlns="http://www.w3.org/2000/svg">
<path d="M0.5 36.6041V0.5H36.629V36.6041H0.5Z" stroke="black"/>
<path d="M18.5504 8.84888L18.5498 8.84888C14.839 8.8468 11.142 8.84936 7.49471 9.24426L18.5504 8.84888ZM18.5504 8.84888C22.2606 8.8468 25.957 8.84936 29.6043 9.24426C30.9484 9.38997 32.0646 10.367 32.3787 11.6901L18.5504 8.84888ZM4.71628 25.0619L4.71631 25.062C5.02979 26.3848 6.14542 27.3618 7.48957 27.5078C11.1365 27.903 14.8332 27.9055 18.544 27.9035H18.5445C22.256 27.9055 25.9518 27.903 29.5985 27.5078M4.71628 25.0619L32.3787 11.6902C32.8778 13.7944 32.8778 16.1031 32.8778 18.3518V18.3763C32.8778 20.6312 32.8736 22.9496 32.3723 25.0618C32.0582 26.385 30.9417 27.3621 29.5985 27.5078M4.71628 25.0619C4.21528 22.95 4.21289 20.6319 4.21289 18.3763C4.21289 16.1221 4.221 13.8028 4.72209 11.6902L4.71628 25.0619ZM29.5985 27.5078L29.6523 28.0049L29.5984 27.5078C29.5984 27.5078 29.5984 27.5078 29.5985 27.5078ZM14.2171 22.8422V23.6534L14.9418 23.2889C16.2665 22.6226 17.5865 21.9588 18.9058 21.2954C20.7256 20.3802 22.5443 19.4657 24.3728 18.5459L25.2581 18.1005L24.3738 17.6531C21.21 16.0522 18.0869 14.4718 14.9429 12.8807L14.2171 12.5134V13.3268V13.3455V13.3641V13.3828V13.4014V13.4201V13.4387V13.4573V13.476V13.4946V13.5133V13.5319V13.5506V13.5692V13.5878V13.6065V13.6251V13.6438V13.6624V13.681V13.6997V13.7183V13.7369V13.7556V13.7742V13.7928V13.8115V13.8301V13.8487V13.8674V13.886V13.9046V13.9233V13.9419V13.9605V13.9791V13.9978V14.0164V14.035V14.0536V14.0723V14.0909V14.1095V14.1281V14.1467V14.1654V14.184V14.2026V14.2212V14.2398V14.2585V14.2771V14.2957V14.3143V14.3329V14.3515V14.3701V14.3888V14.4074V14.426V14.4446V14.4632V14.4818V14.5004V14.519V14.5376V14.5562V14.5748V14.5934V14.6121V14.6307V14.6493V14.6679V14.6865V14.7051V14.7237V14.7423V14.7609V14.7795V14.7981V14.8167V14.8353V14.8539V14.8725V14.8911V14.9097V14.9283V14.9469V14.9654V14.984V15.0026V15.0212V15.0398V15.0584V15.077V15.0956V15.1142V15.1328V15.1514V15.17V15.1886V15.2071V15.2257V15.2443V15.2629V15.2815V15.3001V15.3187V15.3372V15.3558V15.3744V15.393V15.4116V15.4302V15.4488V15.4673V15.4859V15.5045V15.5231V15.5417V15.5602V15.5788V15.5974V15.616V15.6346V15.6531V15.6717V15.6903V15.7089V15.7274V15.746V15.7646V15.7832V15.8018V15.8203V15.8389V15.8575V15.876V15.8946V15.9132V15.9318V15.9503V15.9689V15.9875V16.0061V16.0246V16.0432V16.0618V16.0803V16.0989V16.1175V16.136V16.1546V16.1732V16.1918V16.2103V16.2289V16.2475V16.266V16.2846V16.3032V16.3217V16.3403V16.3589V16.3774V16.396V16.4145V16.4331V16.4517V16.4702V16.4888V16.5074V16.5259V16.5445V16.5631V16.5816V16.6002V16.6187V16.6373V16.6559V16.6744V16.693V16.7115V16.7301V16.7487V16.7672V16.7858V16.8043V16.8229V16.8415V16.86V16.8786V16.8971V16.9157V16.9343V16.9528V16.9714V16.9899V17.0085V17.027V17.0456V17.0642V17.0827V17.1013V17.1198V17.1384V17.1569V17.1755V17.1941V17.2126V17.2312V17.2497V17.2683V17.2868V17.3054V17.3239V17.3425V17.361V17.3796V17.3982V17.4167V17.4353V17.4538V17.4724V17.4909V17.5095V17.528V17.5466V17.5651V17.5837V17.6022V17.6208V17.6394V17.6579V17.6765V17.695V17.7136V17.7321V17.7507V17.7692V17.7878V17.8063V17.8249V17.8434V17.862V17.8805V17.8991V17.9176V17.9362V17.9547V17.9733V17.9919V18.0104V18.029V18.0475V18.0661V18.0846V18.1032V18.1217V18.1403V18.1588V18.1774V18.1959V18.2145V18.233V18.2516V18.2701V18.2887V18.3072V18.3258V18.3443V18.3629V18.3814V18.4V18.4186V18.4371V18.4557V18.4742V18.4928V18.5113V18.5299V18.5484V18.567V18.5855V18.6041V18.6226V18.6412V18.6597V18.6783V18.6968V18.7154V18.734V18.7525V18.7711V18.7896V18.8082V18.8267V18.8453V18.8638V18.8824V18.9009V18.9195V18.9381V18.9566V18.9752V18.9937V19.0123V19.0308V19.0494V19.0679V19.0865V19.1051V19.1236V19.1422V19.1607V19.1793V19.1978V19.2164V19.235V19.2535V19.2721V19.2906V19.3092V19.3277V19.3463V19.3649V19.3834V19.402V19.4205V19.4391V19.4577V19.4762V19.4948V19.5133V19.5319V19.5505V19.569V19.5876V19.6061V19.6247V19.6433V19.6618V19.6804V19.699V19.7175V19.7361V19.7547V19.7732V19.7918V19.8103V19.8289V19.8475V19.866V19.8846V19.9032V19.9217V19.9403V19.9589V19.9774V19.996V20.0146V20.0331V20.0517V20.0703V20.0888V20.1074V20.126V20.1446V20.1631V20.1817V20.2003V20.2188V20.2374V20.256V20.2746V20.2931V20.3117V20.3303V20.3488V20.3674V20.386V20.4046V20.4231V20.4417V20.4603V20.4789V20.4975V20.516V20.5346V20.5532V20.5718V20.5903V20.6089V20.6275V20.6461V20.6647V20.6832V20.7018V20.7204V20.739V20.7576V20.7762V20.7947V20.8133V20.8319V20.8505V20.8691V20.8877V20.9062V20.9248V20.9434V20.962V20.9806V20.9992V21.0178V21.0364V21.0549V21.0735V21.0921V21.1107V21.1293V21.1479V21.1665V21.1851V21.2037V21.2223V21.2409V21.2595V21.2781V21.2967V21.3153V21.3338V21.3524V21.371V21.3896V21.4082V21.4268V21.4454V21.464V21.4826V21.5012V21.5198V21.5385V21.5571V21.5757V21.5943V21.6129V21.6315V21.6501V21.6687V21.6873V21.7059V21.7245V21.7431V21.7617V21.7803V21.799V21.8176V21.8362V21.8548V21.8734V21.892V21.9106V21.9292V21.9479V21.9665V21.9851V22.0037V22.0223V22.0409V22.0596V22.0782V22.0968V22.1154V22.1341V22.1527V22.1713V22.1899V22.2085V22.2272V22.2458V22.2644V22.2831V22.3017V22.3203V22.3389V22.3576V22.3762V22.3948V22.4135V22.4321V22.4507V22.4694V22.488V22.5066V22.5253V22.5439V22.5625V22.5812V22.5998V22.6185V22.6371V22.6557V22.6744V22.693V22.7117V22.7303V22.749V22.7676V22.7863V22.8049V22.8235V22.8422ZM4.72211 11.6901C5.03621 10.3668 6.15168 9.38998 7.49461 9.24427L4.72211 11.6901Z" fill="white" stroke="black"/>
</svg>
